<svg xmlns="http://www.w3.org/2000/svg" xmlns:xlink="http://www.w3.org/1999/xlink" width="940" zoomAndPan="magnify" viewBox="0 0 705 383.03998" height="500" preserveAspectRatio="xMidYMid meet" version="1.0"><defs><g/><clipPath id="a0a9957052"><path d="M 116 224 L 609 224 L 609 374.0625 L 116 374.0625 Z M 116 224 " clip-rule="nonzero"/></clipPath></defs><g fill="#ffffff" fill-opacity="1"><g transform="translate(17.977141, 232.018586)"><g><path d="M 39.0625 -46.671875 C 40.445312 -43.398438 43.3125 -41.765625 47.65625 -41.765625 C 52.570312 -41.765625 56.503906 -44.21875 59.453125 -49.125 C 61.492188 -52.488281 62.515625 -56.75 62.515625 -61.90625 C 62.515625 -69.519531 60.507812 -75.085938 56.5 -78.609375 C 53.46875 -81.234375 49.617188 -82.546875 44.953125 -82.546875 C 43.890625 -82.546875 42.785156 -82.460938 41.640625 -82.296875 L 33.40625 -81.0625 L 33.40625 -8.96875 C 33.40625 -6.757812 34.179688 -4.914062 35.734375 -3.4375 C 37.296875 -1.96875 39.140625 -1.234375 41.265625 -1.234375 L 42.859375 -1.234375 L 42.859375 0 L 5.53125 0 L 5.53125 -1.234375 L 7.125 -1.234375 C 9.25 -1.234375 11.066406 -1.96875 12.578125 -3.4375 C 14.097656 -4.914062 14.898438 -6.757812 14.984375 -8.96875 L 14.984375 -74.4375 C 14.898438 -76.5625 14.265625 -78.238281 13.078125 -79.46875 C 11.890625 -80.695312 10.148438 -81.3125 7.859375 -81.3125 C 7.285156 -81.3125 6.550781 -81.269531 5.65625 -81.1875 L 5.40625 -82.296875 C 12.363281 -82.867188 19.671875 -83.828125 27.328125 -85.171875 C 34.984375 -86.523438 40.019531 -87.363281 42.4375 -87.6875 C 44.851562 -88.019531 47.304688 -88.1875 49.796875 -88.1875 C 52.296875 -88.1875 55.304688 -87.921875 58.828125 -87.390625 C 62.347656 -86.859375 65.953125 -85.671875 69.640625 -83.828125 C 73.328125 -81.984375 76.316406 -79.257812 78.609375 -75.65625 C 80.984375 -71.726562 82.171875 -67.285156 82.171875 -62.328125 C 82.171875 -57.378906 81.269531 -53.019531 79.46875 -49.25 C 76.03125 -42.039062 70.132812 -37.457031 61.78125 -35.5 C 59.738281 -35.007812 57.796875 -34.765625 55.953125 -34.765625 C 54.109375 -34.765625 52.367188 -34.925781 50.734375 -35.25 C 47.367188 -35.738281 44.539062 -36.882812 42.25 -38.6875 C 39.957031 -40.488281 38.523438 -42.988281 37.953125 -46.1875 Z M 39.0625 -46.671875 "/></g></g></g><g fill="#ffffff" fill-opacity="1"><g transform="translate(104.079142, 232.018586)"><g><path d="M 6.75 -1.234375 C 8.882812 -1.234375 10.707031 -1.988281 12.21875 -3.5 C 13.738281 -5.007812 14.535156 -6.832031 14.609375 -8.96875 L 14.609375 -77.015625 C 14.535156 -79.140625 13.738281 -80.957031 12.21875 -82.46875 C 10.707031 -83.988281 8.882812 -84.75 6.75 -84.75 L 5.15625 -84.75 L 5.15625 -85.984375 L 42.5 -85.984375 L 42.375 -84.75 L 40.90625 -84.75 C 38.769531 -84.75 36.925781 -83.988281 35.375 -82.46875 C 33.820312 -80.957031 33.046875 -79.140625 33.046875 -77.015625 L 33.046875 -5.28125 L 49.125 -5.28125 C 55.101562 -5.28125 60.117188 -7 64.171875 -10.4375 C 68.222656 -13.875 71.234375 -18.75 73.203125 -25.0625 L 74.4375 -25.0625 L 68.78125 0 L 5.15625 0 L 5.15625 -1.234375 Z M 6.75 -1.234375 "/></g></g></g><g fill="#ffffff" fill-opacity="1"><g transform="translate(179.740824, 232.018586)"><g><path d="M 90.65625 -1.234375 L 91.75 -1.234375 L 91.75 0 L 52.578125 0 L 52.578125 -1.234375 L 53.671875 -1.234375 C 55.472656 -1.234375 56.800781 -1.785156 57.65625 -2.890625 C 58.519531 -3.992188 58.953125 -5.035156 58.953125 -6.015625 C 58.953125 -7.003906 58.75 -7.988281 58.34375 -8.96875 L 52.328125 -24.078125 L 23.578125 -24.078125 L 17.203125 -8.96875 C 16.785156 -7.90625 16.578125 -6.898438 16.578125 -5.953125 C 16.578125 -5.015625 17.003906 -3.992188 17.859375 -2.890625 C 18.722656 -1.785156 20.097656 -1.234375 21.984375 -1.234375 L 22.96875 -1.234375 L 22.96875 0 L -3.3125 0 L -3.3125 -1.234375 L -2.203125 -1.234375 C -0.328125 -1.234375 1.550781 -1.804688 3.4375 -2.953125 C 5.320312 -4.097656 6.878906 -5.816406 8.109375 -8.109375 L 36.484375 -72.34375 C 40.328125 -80.445312 42.375 -85.8125 42.625 -88.4375 L 43.734375 -88.4375 L 80.203125 -8.359375 C 81.429688 -5.984375 82.988281 -4.203125 84.875 -3.015625 C 86.757812 -1.828125 88.6875 -1.234375 90.65625 -1.234375 Z M 25.671875 -29.234375 L 50.234375 -29.234375 L 38.328125 -59.453125 Z M 25.671875 -29.234375 "/></g></g></g><g fill="#ffffff" fill-opacity="1"><g transform="translate(267.685249, 232.018586)"><g><path d="M 100.34375 -84.75 C 98.300781 -84.75 96.539062 -84.03125 95.0625 -82.59375 C 93.59375 -81.164062 92.816406 -79.425781 92.734375 -77.375 L 92.734375 -14 C 92.734375 -8.507812 93.101562 -3.882812 93.84375 -0.125 L 94.203125 1.71875 L 93.109375 1.71875 L 31.078125 -57.359375 L 31.078125 -8.59375 C 31.078125 -6.550781 31.8125 -4.8125 33.28125 -3.375 C 34.757812 -1.945312 36.519531 -1.234375 38.5625 -1.234375 L 40.90625 -1.234375 L 40.90625 0 L 3.6875 0 L 3.6875 -1.234375 L 5.890625 -1.234375 C 8.023438 -1.234375 9.828125 -1.945312 11.296875 -3.375 C 12.773438 -4.8125 13.515625 -6.59375 13.515625 -8.71875 L 13.515625 -72.46875 C 13.515625 -77.875 13.144531 -82.378906 12.40625 -85.984375 L 12.15625 -87.828125 L 13.265625 -87.828125 L 75.296875 -28.734375 L 75.296875 -77.265625 C 75.210938 -79.390625 74.429688 -81.164062 72.953125 -82.59375 C 71.484375 -84.03125 69.722656 -84.75 67.671875 -84.75 L 65.46875 -84.75 L 65.46875 -85.984375 L 102.6875 -85.984375 L 102.6875 -84.75 Z M 100.34375 -84.75 "/></g></g></g><g fill="#ffffff" fill-opacity="1"><g transform="translate(373.930968, 232.018586)"><g><path d="M 132.65625 -114.71875 C 136.425781 -115.695312 139.5 -116.1875 141.875 -116.1875 C 144.25 -116.1875 146.128906 -116.109375 147.515625 -115.953125 L 147.515625 -114.71875 C 136.785156 -114.144531 128.1875 -109.234375 121.71875 -99.984375 C 118.363281 -95.234375 115.664062 -89.707031 113.625 -83.40625 L 90.53125 -11.421875 C 89.132812 -6.921875 88.4375 -2.742188 88.4375 1.109375 C 88.4375 1.515625 88.4375 1.878906 88.4375 2.203125 L 87.203125 2.203125 L 60.5625 -57 L 38.6875 -5.03125 C 36.476562 0.375 33.242188 5.613281 28.984375 10.6875 C 24.398438 16.09375 18.832031 19.65625 12.28125 21.375 C 10.726562 21.863281 9.09375 22.109375 7.375 22.109375 C 5.65625 22.109375 3.8125 21.820312 1.84375 21.25 L 1.96875 20.015625 C 5 19.859375 7.925781 19.039062 10.75 17.5625 C 13.570312 16.09375 16.046875 14.3125 18.171875 12.21875 C 20.304688 10.132812 22.359375 7.695312 24.328125 4.90625 C 27.515625 0.40625 30.210938 -4.503906 32.421875 -9.828125 L 7.5 -77.625 C 6.425781 -80 4.90625 -81.78125 2.9375 -82.96875 C 0.976562 -84.15625 -1.019531 -84.75 -3.0625 -84.75 L -4.046875 -84.75 L -4.046875 -85.984375 L 33.40625 -85.984375 L 33.40625 -84.75 L 32.3125 -84.75 C 30.582031 -84.75 29.285156 -84.195312 28.421875 -83.09375 C 27.566406 -81.988281 27.140625 -80.941406 27.140625 -79.953125 C 27.140625 -78.972656 27.304688 -78.035156 27.640625 -77.140625 L 42.75 -34.515625 L 64.984375 -87.9375 L 66.078125 -87.828125 L 90.53125 -33.90625 L 104.65625 -83.40625 C 106.695312 -90.53125 109.929688 -96.832031 114.359375 -102.3125 C 119.515625 -108.78125 125.613281 -112.914062 132.65625 -114.71875 Z M 132.65625 -114.71875 "/></g></g></g><g fill="#ffffff" fill-opacity="1"><g transform="translate(491.84527, 232.018586)"><g><path d="M 6.75 -1.234375 C 8.882812 -1.234375 10.707031 -1.988281 12.21875 -3.5 C 13.738281 -5.007812 14.535156 -6.832031 14.609375 -8.96875 L 14.609375 -77.140625 C 14.535156 -79.265625 13.738281 -81.0625 12.21875 -82.53125 C 10.707031 -84.007812 8.882812 -84.75 6.75 -84.75 L 5.15625 -84.75 L 5.15625 -85.984375 L 42.5 -85.984375 L 42.375 -84.75 L 40.90625 -84.75 C 38.769531 -84.75 36.925781 -84.007812 35.375 -82.53125 C 33.820312 -81.0625 33.046875 -79.265625 33.046875 -77.140625 L 33.046875 -8.96875 C 33.046875 -6.832031 33.820312 -5.007812 35.375 -3.5 C 36.925781 -1.988281 38.769531 -1.234375 40.90625 -1.234375 L 42.375 -1.234375 L 42.5 0 L 5.15625 0 L 5.15625 -1.234375 Z M 6.75 -1.234375 "/></g></g></g><g fill="#ffffff" fill-opacity="1"><g transform="translate(539.256678, 232.018586)"><g><path d="M 6.140625 -11.421875 C 6.140625 -17.316406 7.410156 -22.351562 9.953125 -26.53125 L 11.046875 -26.53125 C 10.972656 -25.875 10.9375 -25.21875 10.9375 -24.5625 C 10.9375 -18.914062 12.960938 -13.984375 17.015625 -9.765625 C 21.066406 -5.546875 26.613281 -3.4375 33.65625 -3.4375 C 39.144531 -3.4375 43.421875 -4.742188 46.484375 -7.359375 C 49.554688 -9.984375 51.09375 -13.300781 51.09375 -17.3125 C 51.09375 -22.144531 47.816406 -26.363281 41.265625 -29.96875 L 19.890625 -44.09375 C 15.640625 -46.550781 12.59375 -49.519531 10.75 -53 C 8.90625 -56.476562 7.984375 -60.019531 7.984375 -63.625 C 7.984375 -71.320312 10.414062 -77.257812 15.28125 -81.4375 C 20.15625 -85.613281 26.398438 -87.703125 34.015625 -87.703125 C 38.523438 -87.703125 44.097656 -87.289062 50.734375 -86.46875 L 58.46875 -86.46875 L 56.875 -68.421875 L 55.640625 -68.421875 C 55.640625 -72.671875 54.0625 -76.085938 50.90625 -78.671875 C 47.757812 -81.253906 43.566406 -82.546875 38.328125 -82.546875 C 31.929688 -82.546875 27.300781 -80.578125 24.4375 -76.640625 C 22.96875 -74.753906 22.234375 -72.625 22.234375 -70.25 C 22.234375 -66.320312 25.097656 -62.679688 30.828125 -59.328125 L 54.296875 -44.09375 C 61.660156 -39.832031 65.34375 -33.566406 65.34375 -25.296875 C 65.34375 -16.535156 62.375 -9.84375 56.4375 -5.21875 C 50.5 -0.59375 42.617188 1.71875 32.796875 1.71875 C 27.222656 1.71875 22.082031 1.046875 17.375 -0.296875 C 12.664062 -1.648438 9.207031 -3.472656 7 -5.765625 C 6.425781 -7.328125 6.140625 -9.210938 6.140625 -11.421875 Z M 6.140625 -11.421875 "/></g></g></g><g fill="#ffffff" fill-opacity="1"><g transform="translate(609.51393, 232.018586)"><g><path d="M 6.75 -1.234375 C 8.882812 -1.234375 10.707031 -1.988281 12.21875 -3.5 C 13.738281 -5.007812 14.535156 -6.832031 14.609375 -8.96875 L 14.609375 -77.375 C 14.367188 -80.25 13.019531 -82.378906 10.5625 -83.765625 C 9.332031 -84.421875 8.0625 -84.75 6.75 -84.75 L 5.15625 -84.75 L 5.15625 -85.984375 L 52.203125 -85.984375 C 54.742188 -85.984375 57.523438 -86.226562 60.546875 -86.71875 C 63.578125 -87.207031 65.707031 -87.695312 66.9375 -88.1875 L 66.9375 -66.703125 L 65.71875 -66.703125 L 65.71875 -68.171875 C 65.71875 -71.859375 64.628906 -74.828125 62.453125 -77.078125 C 60.285156 -79.328125 57.359375 -80.535156 53.671875 -80.703125 L 33.046875 -80.703125 L 33.046875 -44.953125 L 49.25 -44.953125 C 52.28125 -45.035156 54.773438 -46.078125 56.734375 -48.078125 C 58.703125 -50.085938 59.6875 -52.566406 59.6875 -55.515625 L 59.6875 -56.625 L 60.921875 -56.625 L 60.921875 -28.25 L 59.6875 -28.25 L 59.6875 -29.234375 C 59.6875 -33.328125 58.050781 -36.359375 54.78125 -38.328125 C 53.144531 -39.222656 51.34375 -39.710938 49.375 -39.796875 L 33.046875 -39.796875 L 33.046875 -5.28125 L 49.125 -5.28125 C 55.101562 -5.28125 60.117188 -7 64.171875 -10.4375 C 68.222656 -13.875 71.234375 -18.75 73.203125 -25.0625 L 74.4375 -25.0625 L 68.78125 0 L 5.15625 0 L 5.15625 -1.234375 Z M 6.75 -1.234375 "/></g></g></g><path stroke-linecap="butt" transform="matrix(0.748125, 0, 0, 0.748125, 144.67845, 23.019716)" fill="none" stroke-linejoin="miter" d="M 2.319951 132.179172 C 195.761907 -39.395615 389.203863 -39.395615 582.640598 132.179172 " stroke="#ffffff" stroke-width="7" stroke-opacity="1" stroke-miterlimit="4"/><g clip-path="url(#a0a9957052)"><path stroke-linecap="butt" transform="matrix(0.748122, -0.0020561, 0.0020561, 0.748122, 144.425533, 253.8143)" fill="none" stroke-linejoin="miter" d="M 2.2957 2.645935 C 194.970744 169.863666 387.651108 169.860636 580.326333 2.642038 " stroke="#ffffff" stroke-width="7" stroke-opacity="1" stroke-miterlimit="4"/></g></svg>